<?xml version="1.0" standalone="no"?>
<!DOCTYPE svg PUBLIC "-//W3C//DTD SVG 20010904//EN"
 "http://www.w3.org/TR/2001/REC-SVG-20010904/DTD/svg10.dtd">
<svg version="1.0" xmlns="http://www.w3.org/2000/svg"
 width="693.000000pt" height="504.000000pt" viewBox="0 0 693.000000 504.000000"
 preserveAspectRatio="xMidYMid meet">
<metadata>
Created by potrace 1.16, written by Peter Selinger 2001-2019
</metadata>
<g transform="translate(0.000000,504.000000) scale(0.100000,-0.100000)"
fill="#000000" stroke="none">
<path d="M1075 4995 c-45 -16 -61 -34 -75 -85 -5 -19 -226 -1052 -491 -2295
-397 -1866 -480 -2269 -476 -2312 11 -104 70 -188 166 -235 l46 -23 2890 -3
c3204 -2 2956 -8 3034 63 21 19 45 51 54 72 15 35 637 3856 637 3913 0 78 -53
159 -125 191 -38 18 -114 19 -1627 19 -973 0 -1588 4 -1588 9 0 5 23 107 50
226 28 119 50 240 50 269 0 74 -33 132 -95 171 l-48 30 -1181 2 c-1002 2
-1187 0 -1221 -12z m2232 -322 c-5 -33 -132 -588 -647 -2823 -60 -263 -85
-389 -79 -397 20 -23 70 -27 89 -7 11 13 109 416 309 1279 161 693 298 1266
303 1273 8 9 80 12 299 12 158 0 290 -3 292 -7 5 -11 -574 -2492 -602 -2578
-104 -320 -313 -445 -743 -445 -438 0 -585 115 -556 436 5 56 119 572 311
1409 l304 1320 -704 3 c-387 1 -703 4 -703 6 0 7 120 530 125 544 3 9 214 12
1006 12 l1002 0 -6 -37z m-897 -665 c0 -10 -276 -1176 -301 -1270 l-10 -38
-284 0 c-222 0 -285 3 -285 13 1 6 41 176 89 377 88 364 94 400 57 400 -8 0
-23 -8 -35 -17 -17 -15 -38 -91 -113 -416 -86 -373 -91 -399 -75 -414 15 -15
49 -18 240 -23 244 -6 278 -13 321 -73 41 -56 30 -133 -92 -662 -61 -264 -120
-506 -132 -537 -88 -237 -294 -351 -655 -365 -236 -9 -397 27 -489 109 -71 61
-89 105 -93 218 -4 91 0 111 94 505 l98 410 279 3 c154 1 283 -1 287 -5 4 -5
-35 -186 -86 -403 -51 -217 -91 -398 -89 -402 8 -13 48 -9 68 5 14 10 40 110
107 408 48 217 88 408 89 426 0 22 -6 36 -19 43 -12 6 -93 10 -194 10 -192 0
-253 11 -307 56 -17 15 -37 39 -45 55 -34 65 -23 128 151 873 91 391 170 714
177 718 7 4 290 8 630 8 466 0 617 -3 617 -12z m2830 -10 c0 -20 -239 -1037
-257 -1093 -27 -86 -86 -187 -139 -240 -50 -49 -145 -105 -178 -105 -9 0 -16
-2 -16 -4 0 -2 -3 -11 -6 -19 -4 -11 8 -19 48 -31 57 -16 109 -61 127 -109 27
-71 14 -147 -132 -762 l-142 -600 -249 -3 c-137 -1 -253 1 -256 5 -4 5 57 276
136 603 79 327 143 610 143 627 1 36 -20 48 -75 41 l-28 -3 -163 -695 c-89
-382 -162 -698 -163 -702 0 -5 486 -8 1080 -8 l1080 0 -1 -27 c0 -16 -19 -140
-42 -278 l-43 -250 -1387 -3 c-1081 -2 -1387 1 -1387 10 0 27 844 3634 853
3646 14 18 1197 18 1197 0z m1290 -16 c0 -33 -478 -2931 -486 -2943 -6 -11
-654 -12 -654 -1 0 4 31 139 68 300 l68 292 -41 0 -41 0 -73 -287 c-40 -159
-77 -294 -83 -300 -8 -10 -86 -13 -329 -13 -175 0 -320 3 -322 8 -5 7 881
2903 902 2948 l11 24 490 0 490 0 0 -28z m-5677 -3179 c2 -5 0 -27 -5 -50 l-9
-43 -88 0 c-119 0 -127 -7 -152 -129 -22 -110 -18 -121 46 -121 44 0 55 10 55
50 0 13 -9 20 -28 22 -27 3 -28 4 -19 46 l8 42 96 0 c94 0 95 0 90 -22 -3 -13
-13 -67 -23 -120 -9 -53 -21 -103 -25 -110 -6 -9 -44 -14 -137 -16 -219 -6
-240 17 -202 216 30 156 56 205 120 231 29 11 267 15 273 4z m377 0 c0 -5 14
-98 30 -208 40 -271 44 -247 -37 -243 l-68 3 -3 33 -3 32 -69 0 c-67 0 -68 0
-89 -35 -20 -34 -22 -35 -86 -35 -36 0 -65 3 -65 6 0 7 175 338 217 412 l25
42 74 0 c41 0 74 -3 74 -7z m355 -120 c15 -71 30 -131 34 -135 4 -4 43 52 88
125 l81 132 66 3 c54 2 66 0 66 -12 0 -22 -79 -427 -86 -437 -6 -11 -124 -12
-124 -1 0 4 6 41 14 82 8 41 14 76 13 77 -1 1 -25 -35 -52 -80 l-50 -82 -50 0
-49 0 -20 85 -20 85 -16 -85 -16 -85 -62 -3 c-57 -3 -62 -1 -62 17 0 11 18
113 40 226 22 113 40 208 40 210 0 3 31 5 68 5 l69 0 28 -127z m555 110 c0
-22 -80 -424 -86 -435 -6 -10 -121 -11 -127 0 -2 4 15 106 39 227 24 121 44
221 44 223 0 1 29 2 65 2 54 0 65 -3 65 -17z m256 -93 c18 -58 34 -98 37 -90
3 8 13 57 22 108 l17 92 69 0 c67 0 69 -1 64 -22 -3 -13 -21 -106 -41 -208
-19 -102 -38 -195 -41 -207 -5 -21 -11 -23 -69 -23 l-64 0 -32 105 c-18 58
-35 102 -38 97 -4 -4 -15 -51 -24 -104 l-18 -98 -63 0 c-35 0 -66 3 -68 8 -2
4 15 106 39 227 24 121 44 221 44 223 0 2 30 2 67 0 l67 -3 32 -105z m629 101
c3 -6 3 -28 -1 -50 l-7 -41 -83 0 c-133 0 -138 -4 -164 -152 -16 -90 -12 -98
50 -98 43 0 50 3 50 19 0 11 3 26 6 35 5 13 -1 16 -25 16 -31 0 -32 1 -25 38
4 20 9 40 11 45 2 4 46 7 97 7 l93 0 -26 -129 c-29 -151 -16 -141 -188 -141
-197 0 -216 27 -172 241 40 196 66 218 256 219 67 0 124 -4 128 -9z"/>
<path d="M4417 3173 c-54 -236 -97 -431 -97 -435 0 -11 68 -10 90 2 10 5 23
25 29 42 25 80 182 791 177 804 -4 9 -21 14 -53 14 l-49 0 -97 -427z"/>
<path d="M5851 3368 c-15 -48 -321 -1281 -321 -1295 0 -9 18 -13 58 -13 l57 0
43 198 c24 108 86 400 137 647 52 248 97 460 100 473 5 20 2 22 -29 22 -30 0
-36 -4 -45 -32z"/>
</g>
</svg>
