<?xml version="1.0" standalone="no"?>
<!DOCTYPE svg PUBLIC "-//W3C//DTD SVG 20010904//EN"
 "http://www.w3.org/TR/2001/REC-SVG-20010904/DTD/svg10.dtd">
<svg version="1.0" xmlns="http://www.w3.org/2000/svg"
 width="693.000000pt" height="504.000000pt" viewBox="0 0 693.000000 504.000000"
 preserveAspectRatio="xMidYMid meet">

<g transform="translate(0.000000,504.000000) scale(0.100000,-0.100000)"
fill="#000000" stroke="none">
<path d="M1957 5000 l-899 -5 -24 -28 c-13 -15 -28 -44 -33 -65 -6 -20 -226
-1054 -491 -2297 -395 -1854 -480 -2268 -475 -2305 15 -105 78 -191 169 -232
l51 -23 2900 3 c2117 3 2911 7 2940 15 51 15 117 80 132 132 26 87 634 3890
628 3925 -14 73 -62 136 -130 166 -11 5 -707 11 -1616 14 l-1595 5 52 225 c29
124 53 244 53 268 2 90 -58 172 -143 197 -40 12 -107 15 -335 13 -157 -2 -690
-5 -1184 -8z m1357 -288 c3 -5 -9 -67 -25 -138 -289 -1245 -709 -3093 -707
-3109 2 -16 12 -21 45 -23 37 -3 44 0 53 20 5 13 140 588 301 1278 160 690
296 1258 302 1262 16 10 584 10 590 1 9 -14 -580 -2525 -612 -2611 -79 -217
-210 -335 -431 -388 -53 -12 -131 -19 -265 -22 -262 -6 -395 20 -493 95 -87
66 -123 186 -104 342 6 48 146 678 311 1399 166 720 301 1315 301 1321 0 8
-200 11 -700 11 -392 0 -700 4 -700 9 0 21 122 537 128 543 14 14 1997 24
2006 10z m-904 -709 c0 -29 -302 -1288 -313 -1300 -7 -10 -76 -13 -284 -13
-234 0 -274 2 -279 15 -4 8 33 176 80 372 47 197 86 368 86 381 0 18 -6 22
-29 22 -16 0 -33 -6 -39 -12 -5 -7 -51 -190 -100 -407 -68 -292 -88 -399 -81
-413 9 -16 25 -18 177 -18 266 -1 341 -18 390 -91 22 -31 24 -41 19 -114 -7
-90 -212 -998 -246 -1082 -63 -160 -169 -256 -345 -312 -134 -43 -233 -54
-414 -48 -172 6 -254 23 -335 70 -62 37 -122 107 -138 164 -28 95 -18 163 86
601 l99 412 288 0 c168 0 288 -4 288 -9 0 -5 -40 -181 -90 -390 -49 -209 -90
-390 -90 -401 0 -25 30 -27 60 -2 18 14 36 82 111 417 49 220 88 411 87 425
l-3 25 -190 6 c-224 7 -286 20 -339 75 -40 42 -61 113 -51 176 10 65 324 1420
335 1446 l10 22 625 0 c579 0 625 -1 625 -17z m2830 -11 c0 -38 -251 -1086
-274 -1141 -29 -71 -82 -154 -128 -198 -34 -33 -140 -93 -164 -93 -7 0 -18 -8
-23 -19 -9 -16 -5 -20 32 -30 60 -15 107 -49 131 -96 39 -75 31 -126 -122
-773 -78 -325 -144 -597 -147 -602 -7 -12 -501 -14 -508 -2 -3 4 60 279 139
612 79 333 143 614 142 625 -3 17 -11 20 -53 20 l-49 0 -156 -670 c-86 -368
-160 -682 -163 -697 l-7 -28 1078 0 c593 0 1081 -2 1084 -5 6 -7 -81 -538 -91
-548 -11 -11 -2767 -22 -2773 -11 -7 12 840 3645 854 3661 8 10 139 13 604 13
562 0 594 -1 594 -18z m1294 10 c6 -10 -478 -2944 -488 -2961 -10 -16 -656
-16 -656 0 0 6 29 138 65 292 36 154 65 285 65 290 0 4 -17 7 -37 5 l-38 -3
-75 -295 -75 -295 -324 -3 c-179 -1 -328 1 -333 6 -8 8 887 2938 904 2960 8 9
120 12 499 12 268 0 490 -4 493 -8z m-5677 -3196 c2 -1 -2 -26 -8 -55 l-11
-51 -98 0 c-69 0 -101 -4 -109 -13 -14 -18 -43 -159 -39 -194 3 -26 7 -28 51
-31 36 -2 47 0 47 12 0 8 3 21 6 30 5 12 0 16 -19 16 -34 0 -37 7 -25 63 l10
47 94 0 c83 0 94 -2 94 -17 0 -49 -44 -239 -58 -251 -11 -8 -57 -12 -146 -12
-202 0 -224 23 -192 203 32 179 66 236 149 256 37 9 244 7 254 -3z m2171 -1
c3 -3 1 -26 -4 -53 l-9 -47 -96 -3 c-76 -2 -100 -6 -111 -20 -8 -9 -23 -57
-32 -105 -21 -106 -15 -120 48 -115 36 3 41 6 44 31 3 23 0 27 -24 27 -26 0
-27 1 -20 46 3 25 8 50 12 55 7 11 194 12 194 0 0 -34 -53 -257 -63 -263 -6
-5 -76 -7 -154 -6 -134 3 -143 4 -167 27 -33 31 -34 88 -6 227 28 137 61 184
141 205 35 9 237 4 247 -6z m-1793 -17 c2 -13 16 -106 30 -208 15 -102 29
-195 32 -207 5 -22 3 -23 -70 -23 l-76 0 -3 33 -3 32 -68 3 -68 3 -14 -36 -15
-35 -71 0 c-54 0 -70 3 -67 14 2 7 55 111 118 229 l115 217 77 0 c72 0 78 -2
83 -22z m330 0 c3 -13 16 -72 29 -131 14 -60 26 -110 28 -112 2 -2 39 57 83
131 l80 133 73 1 c65 0 73 -2 68 -17 -3 -10 -21 -103 -41 -208 -20 -104 -39
-200 -42 -212 -5 -21 -11 -23 -70 -23 l-66 0 6 43 c4 23 9 58 13 77 5 30 -1
25 -43 -42 l-48 -78 -51 0 -51 0 -12 58 c-22 101 -23 102 -40 22 l-16 -75 -69
-3 c-67 -3 -68 -2 -63 20 3 13 22 109 42 213 20 105 38 198 41 208 4 14 17 17
74 17 64 0 70 -2 75 -22z m581 5 c-3 -10 -21 -103 -41 -208 -20 -104 -39 -200
-42 -212 -5 -21 -11 -23 -74 -23 -38 0 -69 3 -69 6 0 11 81 428 85 442 3 8 27
12 75 12 63 0 71 -2 66 -17z m248 -83 c17 -55 32 -98 34 -96 4 5 11 37 32 139
l11 57 70 0 c49 0 69 -4 68 -12 0 -7 -19 -110 -42 -228 l-43 -215 -69 0 -69 0
-31 100 c-34 107 -35 107 -55 0 -21 -116 -12 -105 -90 -105 -39 0 -70 3 -70 6
0 11 81 428 85 442 3 8 27 12 72 12 l68 0 29 -100z"/>
<path d="M4515 3588 c-5 -14 -195 -846 -195 -854 0 -10 78 -3 94 9 25 18 211
824 195 844 -14 17 -88 17 -94 1z"/>
<path d="M5841 3323 c-27 -101 -311 -1248 -311 -1256 0 -4 24 -7 54 -7 43 0
56 4 60 18 12 39 110 492 191 882 47 228 88 421 90 428 3 8 -7 12 -29 12 -34
0 -34 0 -55 -77z"/>
<path d="M1092 585 c-12 -25 -22 -48 -22 -50 0 -3 14 -5 30 -5 28 0 30 2 30
38 0 61 -14 67 -38 17z"/>
</g>
</svg>
